<mxfile host="app.diagrams.net" modified="2024-02-20T12:59:58.809Z" agent="Mozilla/5.0 (Windows NT 10.0; Win64; x64) AppleWebKit/537.36 (KHTML, like Gecko) Chrome/121.0.0.0 Safari/537.36" version="22.1.18" etag="R_juHYmCzYyXACfWvZwH" type="github">
  <diagram name="第 1 页" id="xIoGFTBcGK2XpuQCT6fY">
    <mxGraphModel>
      <root>
        <mxCell id="0" />
        <mxCell id="1" parent="0" />
      </root>
    </mxGraphModel>
  </diagram>
</mxfile>
